<svg width="16" height="16" viewBox="0 0 16 16" fill="none" xmlns="http://www.w3.org/2000/svg">
<path fill-rule="evenodd" clip-rule="evenodd" d="M7.28989 1.96642C7.47742 1.77889 7.73178 1.67353 7.99699 1.67353C8.26221 1.67353 8.51656 1.77889 8.7041 1.96642M7.99699 3.00686C8.0854 3.00686 8.17018 2.97174 8.2327 2.90923C8.29521 2.84672 8.33033 2.76193 8.33033 2.67353C8.33033 2.58512 8.29521 2.50034 8.2327 2.43783C8.17018 2.37531 8.0854 2.3402 7.99699 2.3402C7.90859 2.3402 7.8238 2.37531 7.76129 2.43783C7.69878 2.50034 7.66366 2.58512 7.66366 2.67353C7.66366 2.76193 7.69878 2.84672 7.76129 2.90923C7.8238 2.97174 7.90859 3.00686 7.99699 3.00686ZM7.28989 1.96642C7.10235 2.15396 6.99699 2.40831 6.99699 2.67353ZM8.7041 1.96642C8.89164 2.15396 8.99699 2.40831 8.99699 2.67353C8.99699 2.93874 8.89164 3.1931 8.7041 3.38064C8.51656 3.56817 8.26221 3.67353 7.99699 3.67353C7.73178 3.67353 7.47742 3.56817 7.28989 3.38064C7.10235 3.1931 6.99699 2.93874 6.99699 2.67353M7.28989 7.29976C7.47742 7.11222 7.73178 7.00686 7.99699 7.00686C8.26221 7.00686 8.51656 7.11222 8.7041 7.29976C8.89164 7.48729 8.99699 7.74165 8.99699 8.00686C8.99699 8.27208 8.89164 8.52643 8.7041 8.71397C8.51656 8.90151 8.26221 9.00686 7.99699 9.00686C7.73178 9.00686 7.47742 8.90151 7.28989 8.71397C7.10235 8.52643 6.99699 8.27208 6.99699 8.00686C6.99699 7.74165 7.10235 7.48729 7.28989 7.29976ZM7.99699 8.3402C8.0854 8.3402 8.17018 8.30508 8.2327 8.24256C8.29521 8.18005 8.33033 8.09527 8.33033 8.00686C8.33033 7.91846 8.29521 7.83367 8.2327 7.77116C8.17018 7.70865 8.0854 7.67353 7.99699 7.67353C7.90859 7.67353 7.82381 7.70865 7.76129 7.77116C7.69878 7.83367 7.66366 7.91846 7.66366 8.00686C7.66366 8.09527 7.69878 8.18005 7.76129 8.24256C7.82381 8.30508 7.90859 8.3402 7.99699 8.3402ZM7.28988 12.6331C7.47743 12.4455 7.73178 12.3402 7.99699 12.3402C8.26221 12.3402 8.51656 12.4455 8.7041 12.6331C8.89164 12.8206 8.99699 13.075 8.99699 13.3402C8.99699 13.6054 8.89164 13.8598 8.7041 14.0473C8.51656 14.2348 8.26221 14.3402 7.99699 14.3402C7.73178 14.3402 7.47743 14.2348 7.28988 14.0473C7.10235 13.8598 6.99699 13.6054 6.99699 13.3402C6.99699 13.075 7.10235 12.8206 7.28988 12.6331ZM7.99699 13.6735C8.08539 13.6735 8.17018 13.6384 8.2327 13.5759C8.29521 13.5134 8.33033 13.4286 8.33033 13.3402C8.33033 13.2518 8.29521 13.167 8.2327 13.1045C8.17018 13.042 8.08539 13.0069 7.99699 13.0069C7.90859 13.0069 7.82381 13.042 7.76129 13.1045C7.69878 13.167 7.66366 13.2518 7.66366 13.3402C7.66366 13.4286 7.69878 13.5134 7.76129 13.5759C7.82381 13.6384 7.90859 13.6735 7.99699 13.6735Z" fill="#E5E3E3"/>
</svg>
