<svg version="1.2" xmlns="http://www.w3.org/2000/svg" viewBox="0 0 1440 1024" width="1440" height="1024">
	<title>image</title>
	<style>
		.s0 { fill: #86b1db } 
	</style>
	<path fill-rule="evenodd" class="s0" d="m-262.6 597.5l79.7 17.2c79.8 17.3 239.3 51.7 394.7 143.2 155.5 91.6 306.8 240.3 466.3 274.7 159.6 34.4 327.3-45.4 488.5-33.9 161.1 11.6 315.7 114.6 393 166.1l77.3 51.5-4.9 68.5-80.6-5.8c-80.6-5.7-241.7-17.3-402.9-28.9q-241.7-17.3-483.5-34.7-241.7-17.3-483.5-34.7c-161.2-11.6-322.3-23.1-402.9-28.9l-80.6-5.8z"/>
	<path fill-rule="evenodd" class="s0" d="m1710.7 551.3l-73.5-36c-73.5-36-220.4-108-348.5-241.7-128-133.8-237.2-329.3-384.1-401.2-147-72-331.8-20.5-486.3-67.7-154.5-47.3-278.8-193.4-340.9-266.4l-62.1-73.1 22.6-74.1 77.3 23.6c77.2 23.7 231.8 70.9 386.3 118.2q231.7 70.9 463.5 141.8 231.8 70.9 463.6 141.8c154.5 47.3 309 94.6 386.2 118.2l77.3 23.7z"/>
</svg>